<svg width="78" height="213" viewBox="0 0 78 213" fill="none" xmlns="http://www.w3.org/2000/svg">
<g opacity="0.5">
<rect width="78" height="213" rx="10" fill="#D8D8D8"/>
<rect x="0.5" y="0.5" width="77" height="212" rx="9.5" stroke="#0D0D0D" stroke-opacity="0.2"/>
<path d="M36.5 56.25H41.5V46.8562L45.5 50.4562L49 47.25L39 38.25L29 47.25L32.5625 50.4L36.5 46.8562V56.25ZM24 63C22.625 63 21.4479 62.5594 20.4688 61.6781C19.4896 60.7969 19 59.7375 19 58.5V22.5C19 21.2625 19.4896 20.2031 20.4688 19.3219C21.4479 18.4406 22.625 18 24 18H44L59 31.5V58.5C59 59.7375 58.5104 60.7969 57.5312 61.6781C56.5521 62.5594 55.375 63 54 63H24ZM41.5 33.75V22.5H24V58.5H54V33.75H41.5Z" fill="#7183A3"/>
<path d="M36.1429 113.857H19V108.143H36.1429V91H41.8571V108.143H59V113.857H41.8571V131H36.1429V113.857Z" fill="#7183A3"/>
</g>
</svg>
